inDegrees=yes
name=ik_S57_A10_T02
DataType=double
version=3
OpenSimVersion=4.3-2021-08-27-4bc7ad9
endheader
time	pelvis_tilt	pelvis_list	pelvis_rotation	pelvis_tx	pelvis_ty	pelvis_tz	hip_flexion_r	hip_adduction_r	hip_rotation_r	knee_angle_r	knee_angle_r_beta	ankle_angle_r	subtalar_angle_r	mtp_angle_r	hip_flexion_l	hip_adduction_l	hip_rotation_l	knee_angle_l	knee_angle_l_beta	ankle_angle_l	subtalar_angle_l	mtp_angle_l	lumbar_extension	lumbar_bending	lumbar_rotation	arm_flex_r	arm_add_r	arm_rot_r	elbow_flex_r	pro_sup_r	wrist_flex_r	wrist_dev_r	arm_flex_l	arm_add_l	arm_rot_l	elbow_flex_l	pro_sup_l	wrist_flex_l	wrist_dev_l
0	0	0	0	0	0.9399999999999999	0	0	0	0	0	0	0	0	0	0	0	0	0	0	0	0	0	0	0	0	0	0	0	0	89.99999999963507	0	0	0	0	0	0	89.99999999869995	0	0
0.02	0.6381713037271797	0.1508393287941944	16.64599909274863	0	0.9399999999999999	0	2.624927394489882	-1.20689514927185	-0.8803259338189294	4.046247010778468	0.07062033268706275	0	0	0	2.624927394489882	-1.20689514927185	-0.8803259338189294	4.046247010778468	0.07062033268706275	0	0	0	0.6691540992383915	1.076921612445339	4.48578145687458	20.36145415335704	5.013955405038415	-3.36469362412168	24.91187618115809	85.31545639858757	0	0	17.58083533475982	-1.850122279970155	9.627619924606632	29.50457916404511	70.84016010193108	0	0
0.04	1.067138864973178	0.7218623498915431	17.24503874053907	0	0.9399999999999999	0	41.30741495966625	-11.16908606105435	-10.4082151787757	55.62902376740627	0.9709096244114196	0	0	0	41.30741495966625	-11.16908606105435	-10.4082151787757	55.62902376740627	0.9709096244114196	0	0	0	0.1118224065513081	0.66984911917219	3.879067538925694	20.38928325742246	5.018485499111922	-3.304597529056858	24.86377280354975	85.27369247651677	0	0	17.55611551442044	-1.82413712566892	9.601336949383686	29.51763376201451	70.87543842389545	0	0
0.06	1.073165766737795	0.7248558286077806	17.26929812786362	0	0.9399999999999999	0	41.30977931623479	-11.1664849893558	-10.40763602411446	55.62875381314928	0.9709049128208054	0	0	0	41.30977931623479	-11.1664849893558	-10.40763602411446	55.62875381314928	0.9709049128208054	0	0	0	0.1189558217621821	0.6707905155475399	3.87886507733386	20.37660164057733	5.020400635262045	-3.225892121148081	24.84885155847849	85.29205340364867	0	0	17.55029545231791	-1.817271412207293	9.582475860169819	29.53115649317976	70.88604936756155	0	0
0.08	1.069339259454631	0.7255521874240285	17.28784571749039	0	0.9399999999999999	0	41.31426458328649	-11.16228142818174	-10.40662497770648	55.62822898177325	0.970895752785276	9.475289934935727e-36	0	0	41.31426458328649	-11.16228142818174	-10.40662497770648	55.62822898177325	0.970895752785276	9.475289934935727e-36	0	0	0.1164659781282854	0.6723237230960307	3.876714913008741	20.37438030179079	5.044537743441722	-3.216455734386272	24.87819839271422	85.30474648477457	0	1.895024161571113e-35	17.55020814012943	-1.77457897330833	9.577783766299396	29.58410977046068	70.91652627456125	0	1.895024161571113e-35
0.1	1.057964159111519	0.731258542101353	17.26952985650309	0	0.9399999999999999	0	41.32101902127373	-11.155550051882	-10.40504926624278	55.62744731643271	0.9708821101514347	0	0	0	41.32101902127373	-11.155550051882	-10.40504926624278	55.62744731643271	0.9708821101514347	0	0	0	0.1087909454242367	0.6807140516723139	3.868317216002693	20.37498752964979	5.025587179925735	-3.189160243203757	24.94543659333897	85.31246853016366	0	0	17.55662722913696	-1.764574038306589	9.559123941396548	29.67121828847903	70.93964543200421	0	0
0.12	1.061764916052479	0.7527650743413954	17.25738095659763	0	0.9399999999999999	0	41.32704676196269	-11.15261611617676	-10.40402639545012	55.62669296980409	0.970868944319064	0	0	0	41.32704676196269	-11.15261611617676	-10.40402639545012	55.62669296980409	0.970868944319064	0	0	0	0.1204053160851563	0.6996173329297021	3.850217783600889	20.37671999736235	5.049878910372171	-3.098880638212171	24.87240443315119	85.28982331007083	0	0	17.49578946934445	-1.726779456225739	9.551918882504175	29.72180401148512	70.94343783937352	0	0
0.14	1.070543588073652	0.7670880585550484	17.26718964337012	0	0.9399999999999999	0	41.33832927642328	-11.14591932421699	-10.40196289238776	55.62530397846973	0.9708447018469978	0	0	0	41.33832927642328	-11.14591932421699	-10.40196289238776	55.62530397846973	0.9708447018469978	0	0	0	0.1357405198065339	0.709218106850109	3.857358818554115	20.35960975222688	5.017039543568971	-3.147803792386739	24.82700699369867	85.28821851039829	0	0	17.4588119833118	-1.687187252339373	9.535709323635498	29.72620276938122	70.95594989466902	0	0
0.16	1.064529083627479	0.7771644397714639	17.28930777246493	0	0.9399999999999999	0	41.35269656030327	-11.13675139170402	-10.39926463768558	55.62354102638506	0.9708139325285653	0	0	0	41.35269656030327	-11.13675139170402	-10.39926463768558	55.62354102638506	0.9708139325285653	0	0	0	0.1363020388668502	0.7196238575150431	3.838228875649743	20.36446821824799	5.011295923785301	-3.182155939548909	24.89886370998765	85.19769606657023	0	0	17.44477486781003	-1.644348547465871	9.452243476539559	29.8368612471644	70.92224903816033	0	0
0.18	1.065759860427643	0.7802614649641957	17.3044338473166	0	0.9399999999999999	0	41.35791351073633	-11.13365298880956	-10.3983180337653	55.62289342058325	0.9708026296750687	0	0	0	41.35791351073633	-11.13365298880956	-10.3983180337653	55.62289342058325	0.9708026296750687	0	0	0	0.1397087423178947	0.7218546633827554	3.823261516799796	20.37151922318851	5.000835355873996	-3.194984496984552	24.89259572844153	85.09978378838535	0	0	17.4357271465178	-1.646105258441561	9.407565390855332	29.86318389167735	70.91162179688986	0	0
0.2	1.049622922073924	0.7881054387700841	17.308973457931	0	0.9399999999999999	0	41.36369364303955	-11.12827016622458	-10.39701913290803	55.62221541092167	0.9707907961741138	0	0	0	41.36369364303955	-11.12827016622458	-10.39701913290803	55.62221541092167	0.9707907961741138	0	0	0	0.128024210593488	0.7337770765703882	3.804967592080553	20.39502372397897	4.997723271342889	-3.11787026036386	24.94672658174893	85.07008632144577	0	0	17.44913342872025	-1.630336649952053	9.395549040845305	29.92752720741884	70.91944483943739	0	0
0.22	1.050857554028783	0.7934654223705664	17.29758074088709	0	0.9399999999999999	0	41.36351266593023	-11.12822784396078	-10.39703752406982	55.62223883655832	0.9707912050286027	0	0	0	41.36351266593023	-11.12822784396078	-10.39703752406982	55.62223883655832	0.9707912050286027	0	0	0	0.1307038462138818	0.7385528268295853	3.808890872029376	20.42241378972291	4.967215216958007	-3.145957770558246	24.90468726130866	85.05159029453216	0	0	17.43776441187306	-1.631056421315809	9.411549767425571	29.90791223091111	70.90666398125647	0	0
